#!OML:ASF H:\Punching\Project 1\Capture day 1\Session 1\female.ASF
:FULLY-SPECIFIED
:DEGREES
174
root -0.09631 14.9098 -1.87003 8.19315 -0.404694 -0.752594
lowerback 3.06687 -0.809483 0.478251
upperback -5.7697 -1.07705 -0.293643
thorax -7.76753 -0.569807 -0.470468
lowerneck -13.8846 1.50159 7.65112
upperneck 36.8299 1.30819 -3.85732
head 15.3072 1.08441 -2.78017
rclavicle -4.38569e-015 8.15017e-015
rhumerus 32.217 10.7087 -61.7153
rradius 65.5191
rwrist 0.359747
rhand 31.5836 -36.1418
rfingers 7.12502
rthumb 55.1247 -54.1899
lclavicle -4.38569e-015 8.15017e-015
lhumerus 27.6988 -9.784 56.5876
lradius 79.9645
lwrist -9.06113
lhand 36.089 26.4934
lfingers 7.12502
lthumb 59.0818 41.2028
rfemur -27.2019 -5.67055 16.7131
rtibia 50.4777
rfoot -28.1303 -8.51243
rtoes -12.7042
lfemur -28.2891 0.713698 -16.751
ltibia 50.5962
lfoot -25.3956 10.2349
ltoes -13.6252
175
root -0.0948062 14.9105 -1.87132 8.19753 -0.414408 -0.758555
lowerback 3.06615 -0.809543 0.468884
upperback -5.78094 -1.07716 -0.283949
thorax -7.77884 -0.56902 -0.454967
lowerneck -13.8585 1.51461 7.6825
upperneck 36.7742 1.3336 -3.89265
head 15.2764 1.09369 -2.79479
rclavicle -1.81764e-014 9.93923e-016
rhumerus 32.2017 10.7281 -61.726
rradius 65.5111
rwrist 0.362715
rhand 31.4951 -36.0512
rfingers 7.12502
rthumb 55.0459 -54.1566
lclavicle -1.81764e-014 9.93923e-016
lhumerus 27.6827 -9.78606 56.5982
lradius 79.9718
lwrist -9.05695
lhand 36.2117 26.4873
lfingers 7.12502
lthumb 59.1877 41.093
rfemur -27.1969 -5.61594 16.7119
rtibia 50.4468
rfoot -28.1144 -8.55298
rtoes -12.7106
lfemur -28.2851 0.66287 -16.7497
ltibia 50.5783
lfoot -25.387 10.2932
ltoes -13.6397
176
root -0.0926601 14.911 -1.87214 8.1884 -0.405353 -0.748696
lowerback 3.08377 -0.828856 0.446874
upperback -5.80113 -1.1033 -0.263637
thorax -7.8104 -0.579956 -0.418339
lowerneck -13.7971 1.53071 7.65592
upperneck 36.7163 1.37131 -3.89313
head 15.2361 1.10488 -2.78192
rclavicle -4.69629e-015 5.56597e-015
rhumerus 32.1714 10.7994 -61.7253
rradius 65.5205
rwrist 0.383541
rhand 31.5344 -36.0996
rfingers 7.12502
rthumb 55.0809 -54.1796
lclavicle -4.69629e-015 5.56597e-015
lhumerus 27.6103 -9.76671 56.6114
lradius 79.9819
lwrist -9.03691
lhand 36.1229 26.4901
lfingers 7.12502
lthumb 59.111 41.171
rfemur -27.1705 -5.58713 16.6892
rtibia 50.4192
rfoot -28.0992 -8.58283
rtoes -12.7334
lfemur -28.2661 0.585939 -16.7667
ltibia 50.5605
lfoot -25.394 10.3634
ltoes -13.6064
177
root -0.0916758 14.9109 -1.87399 8.19154 -0.416983 -0.789245
lowerback 3.07541 -0.818649 0.472982
upperback -5.80903 -1.08712 -0.253774
thorax -7.81415 -0.573243 -0.424264
lowerneck -13.7471 1.53657 7.69324
upperneck 36.6528 1.38377 -3.92195
head 15.195 1.11043 -2.79658
rclavicle 3.03147e-015 -4.57205e-015
rhumerus 32.1328 10.7898 -61.7235
rradius 65.5204
rwrist 0.400505
rhand 31.5468 -36.0881
rfingers 7.12502
rthumb 55.0919 -54.1601
lclavicle 3.03147e-015 -4.57205e-015
lhumerus 27.5588 -9.78963 56.6341
lradius 79.9682
lwrist -9.01952
lhand 36.0087 26.4027
lfingers 7.12502
lthumb 59.0124 41.1796
rfemur -27.1766 -5.51098 16.7284
rtibia 50.3967
rfoot -28.0786 -8.61607
rtoes -12.686
lfemur -28.265 0.536897 -16.7232
ltibia 50.5448
lfoot -25.3739 10.4248
ltoes -13.6171
178
root -0.0896904 14.9118 -1.87479 8.1842 -0.415357 -0.782748
lowerback 3.08419 -0.816137 0.470528
upperback -5.81243 -1.08436 -0.260704
thorax -7.82303 -0.571989 -0.430271
lowerneck -13.7432 1.53552 7.69827
upperneck 36.6048 1.37873 -3.9167
head 15.1703 1.10872 -2.79456
rclavicle 7.1314e-015 -1.78906e-015
rhumerus 32.0973 10.7745 -61.7489
rradius 65.5184
rwrist 0.429675
rhand 31.4304 -36.0636
rfingers 7.12502
rthumb 54.9881 -54.2109
lclavicle 7.1314e-015 -1.78906e-015
lhumerus 27.5542 -9.81494 56.6354
lradius 79.9701
lwrist -8.99254
lhand 36.0158 26.3956
lfingers 7.12502
lthumb 59.0186 41.1665
rfemur -27.1595 -5.47753 16.7108
rtibia 50.3781
rfoot -28.0723 -8.62557
rtoes -12.6207
lfemur -28.2484 0.464071 -16.7372
ltibia 50.5234
lfoot -25.3722 10.5135
ltoes -13.6329
179
root -0.0877658 14.9125 -1.87517 8.17535 -0.410206 -0.787791
lowerback 3.05721 -0.824129 0.47471
upperback -5.79576 -1.09446 -0.254783
thorax -7.78933 -0.576943 -0.425955
lowerneck -13.7361 1.5547 7.70993
upperneck 36.5303 1.41096 -3.9344
head 15.1354 1.12006 -2.79654
rclavicle -9.34288e-015 2.98177e-015
rhumerus 32.1019 10.7853 -61.7452
rradius 65.5235
rwrist 0.446781
rhand 31.3935 -36.0799
rfingers 7.12502
rthumb 54.9552 -54.2509
lclavicle -9.34288e-015 2.98177e-015
lhumerus 27.5617 -9.79707 56.6306
lradius 79.9705
lwrist -8.95954
lhand 35.9909 26.411
lfingers 7.12502
lthumb 58.997 41.2028
rfemur -27.1399 -5.45143 16.7081
rtibia 50.3612
rfoot -28.0467 -8.65781
rtoes -12.6718
lfemur -28.2199 0.378369 -16.7354
ltibia 50.4997
lfoot -25.3834 10.577
ltoes -13.5216
180
root -0.0861313 14.9124 -1.87609 8.17168 -0.401828 -0.791789
lowerback 3.05364 -0.809255 0.491228
upperback -5.77999 -1.07472 -0.276261
thorax -7.77076 -0.568874 -0.459847
lowerneck -13.7957 1.56302 7.77064
upperneck 36.4817 1.40461 -3.94754
head 15.1265 1.12287 -2.8127
rclavicle -1.70209e-015 -3.97569e-015
rhumerus 32.0702 10.6998 -61.7657
rradius 65.5257
rwrist 0.486396
rhand 31.3696 -36.0373
rfingers 7.12502
rthumb 54.9339 -54.2237
lclavicle -1.70209e-015 -3.97569e-015
lhumerus 27.631 -9.85218 56.589
lradius 79.9712
lwrist -8.93686
lhand 35.9749 26.3705
lfingers 7.12502
lthumb 58.9832 41.1757
rfemur -27.128 -5.42439 16.7078
rtibia 50.3474
rfoot -28.0326 -8.7022
rtoes -12.7142
lfemur -28.2074 0.299181 -16.7379
ltibia 50.4797
lfoot -25.3708 10.6782
ltoes -13.5824
